HIERARCHY
ROOT Hips
{
  OFFSET 90.7885 88.945 -76.2838
  CHANNELS 6 Xposition Yposition Zposition Zrotation Xrotation Yrotation
  JOINT LeftUpLeg
  {
    OFFSET 8.64259 1.95398 -2.38835
    CHANNELS 3 Zrotation Xrotation Yrotation
    JOINT LeftLeg
    {
      OFFSET 43.7702 0 0
      CHANNELS 3 Zrotation Xrotation Yrotation
      JOINT LeftFoot
      {
        OFFSET 40.6238 0 0
        CHANNELS 3 Zrotation Xrotation Yrotation
        JOINT LeftToeBase
        {
          OFFSET 12.7242 0 0
          CHANNELS 3 Zrotation Xrotation Yrotation
          End Site
          {
            OFFSET 0 0 0
          }
        }
      }
    }
  }
  JOINT RightUpLeg
  {
    OFFSET -8.2249 1.95398 -2.59336
    CHANNELS 3 Zrotation Xrotation Yrotation
    JOINT RightLeg
    {
      OFFSET 43.5653 0 0
      CHANNELS 3 Zrotation Xrotation Yrotation
      JOINT RightFoot
      {
        OFFSET 40.6238 0 0
        CHANNELS 3 Zrotation Xrotation Yrotation
        JOINT RightToeBase
        {
          OFFSET 12.7242 0 0
          CHANNELS 3 Zrotation Xrotation Yrotation
          End Site
          {
            OFFSET 0 0 0
          }
        }
      }
    }
  }
  JOINT Spine
  {
    OFFSET 0.165834 0.87714 6.61349
    CHANNELS 3 Zrotation Xrotation Yrotation
    JOINT Spine1
    {
      OFFSET 7.38963 1.71661e-005 0
      CHANNELS 3 Zrotation Xrotation Yrotation
      JOINT Spine2
      {
        OFFSET 11.9445 1.14441e-005 0
        CHANNELS 3 Zrotation Xrotation Yrotation
        JOINT Spine3
        {
          OFFSET 14.7254 4.19617e-005 0
          CHANNELS 3 Zrotation Xrotation Yrotation
          JOINT Spine4
          {
            OFFSET 10.9679 0 0
            CHANNELS 3 Zrotation Xrotation Yrotation
            JOINT RightShoulder
            {
              OFFSET 2.46616 -1.6653 3.69651
              CHANNELS 3 Zrotation Xrotation Yrotation
              JOINT RightArm
              {
                OFFSET 13.0012 0 0
                CHANNELS 3 Zrotation Xrotation Yrotation
                JOINT RightForeArm
                {
                  OFFSET 28.7848 1.52588e-005 0
                  CHANNELS 3 Zrotation Xrotation Yrotation
                  JOINT RightHand
                  {
                    OFFSET 26.5688 1.52588e-005 0
                    CHANNELS 3 Zrotation Xrotation Yrotation
                    End Site
                    {
                      OFFSET 0 0 0
                    }
                  }
                }
              }
            }
            JOINT LeftShoulder
            {
              OFFSET 2.38034 -1.29275 -3.7523
              CHANNELS 3 Zrotation Xrotation Yrotation
              JOINT LeftArm
              {
                OFFSET 16.3182 6.10352e-005 0
                CHANNELS 3 Zrotation Xrotation Yrotation
                JOINT LeftForeArm
                {
                  OFFSET 27.0901 0 0
                  CHANNELS 3 Zrotation Xrotation Yrotation
                  JOINT LeftHand
                  {
                    OFFSET 24.5451 1.52588e-005 0
                    CHANNELS 3 Zrotation Xrotation Yrotation
                    End Site
                    {
                      OFFSET 0 0 0
                    }
                  }
                }
              }
            }
            JOINT Neck
            {
              OFFSET 5.0226 -0.0266342 0
              CHANNELS 3 Zrotation Xrotation Yrotation
              JOINT Head
              {
                OFFSET 6.69363 2.86102e-005 0
                CHANNELS 3 Zrotation Xrotation Yrotation
                End Site
                {
                  OFFSET 0 0 0
                }
              }
            }
          }
        }
      }
    }
  }
}
MOTION
Frames:	12
Frame Time:	0.0416667
-283.677 80.3071 -277.076 -104.394 30.3479 -81.2792 -171.071 16.1685 99.3006 -65.7411 -67.9198 15.2511 165.84 -7.71588 -64.5668 -0.552225 -20.5121 22.2579 -178.209 29.1357 84.9523 -76.9269 -16.2305 -7.18003 87.9244 -11.7784 -2.66844 21.1833 0.264786 1.04347 -0.570448 8.05205 -90.1846 10.7688 -1.22102 -0.254171 -0.901595 -1.23103 -0.200184 -23.4404 -1.0882 -0.609426 -3.42775 -1.08819 -0.609432 93.6422 -25.0555 -100.947 48.5071 -8.54913 27.4191 -34.8031 -18.6063 -69.7589 -31.1571 0.25286 -15.0413 -85.4717 -45.859 84.9302 -7.14253 19.4462 -23.1392 45.9005 -21.0217 -98.856 -6.98279 0.357828 -15.473 13.9746 2.95579 -1.95091 -9.70458 3.35955 0.469686 
-279.952 83.0632 -274.293 -105.387 29.9415 -79.934 -170.113 5.49977 102.263 -71.9078 -29.1392 5.10837 149.913 6.19873 -45.1243 -25.2377 4.56886 3.70294 -178.084 28.393 86.6725 -69.6332 -16.3745 -7.79825 78.9046 -7.93446 -3.48664 21.8458 -0.154873 1.75361 -1.41829 7.9468 -90.1965 10.9817 -2.91464 -0.113869 -0.685952 -2.9168 0.0146166 -23.2454 -2.74556 -0.985248 -3.23281 -2.74556 -0.985254 95.1134 -23.4781 -98.1575 54.2395 -13.2832 36.8847 -34.5033 -11.6323 -71.2984 -26.1137 0.834897 -18.6643 -85.5275 -41.1867 84.0865 -5.11096 14.6471 -25.219 38.0164 -20.7538 -103.171 -2.80626 -0.0542731 -13.4658 9.5832 6.60802 -1.80164 -8.1628 6.75284 2.18898 
-277.938 87.4931 -270.833 -108.793 31.8058 -76.4229 -168.613 -6.77936 100.787 -64.6982 4.67762 3.99867 126.533 21.9447 -15.7794 -30.9164 16.6777 -1.77366 -179.171 22.4359 88.2166 -57.1186 -20.6327 -9.45936 68.2901 -3.20665 -2.49162 21.3242 -0.450316 2.43702 -1.93931 8.17954 -90.4281 10.5135 -4.05946 -0.492245 -1.15114 -4.07719 -0.312821 -23.73 -3.72364 -1.69112 -3.71735 -3.72364 -1.69112 96.1511 -19.9745 -96.7597 56.4301 -14.7786 43.6482 -35.9387 -7.24768 -73.9345 -20.3186 0.997861 -23.324 -85.8777 -36.697 82.6857 -4.37176 11.1196 -24.36 36.5986 -20.3604 -104.613 -0.329651 -0.238065 -12.4864 7.42574 10.0203 -1.15702 -8.93707 9.78661 5.06979 
-274.65 92.1683 -267.216 -108.778 33.996 -75.1111 -169.88 -10.0835 97.1014 -58.771 19.0089 3.71131 95.5522 18.6238 6.66376 -2.3973 9.09643 -3.49961 178.502 17.7926 88.7559 -39.7522 -28.8414 -9.44212 57.6777 1.19985 -0.141665 15.4249 -0.0616037 2.61615 -2.07858 8.1674 -90.6509 10.5256 -4.43914 -0.898639 -1.13795 -4.4744 -0.702014 -23.7216 -3.96358 -2.19309 -3.70893 -3.96357 -2.19309 96.1129 -19.3289 -97.0172 53.7018 -11.7343 47.1957 -34.89 -5.56144 -75.1635 -20.2604 1.72172 -27.627 -86.2563 -32.538 81.0909 -2.75112 12.5461 -25.462 38.9232 -20.6143 -102.534 -1.3616 -0.150153 -11.0898 6.23139 11.3303 -2.39166 -10.6955 11.0623 7.47259 
-269.585 95.1025 -263.724 -102.9 35.6653 -77.3362 -171.509 -1.74829 96.1803 -56.5803 19.7789 3.22513 75.5832 8.71743 9.35498 16.2965 6.68169 -5.84044 179.783 18.4714 89.3401 -28.9164 -33.8838 -9.66232 59.5821 -0.259325 0.367217 16.0497 0.569762 1.39937 -2.01232 7.61354 -90.8519 11.6277 -4.40193 -1.24064 -0.0361539 -4.45225 -1.04535 -22.6144 -3.8254 -2.50774 -2.60178 -3.82541 -2.50775 95.4307 -19.9445 -98.4821 50.2734 -6.61851 46.7839 -31.8321 -5.07688 -76.0367 -18.864 2.0432 -30.7035 -86.5011 -29.6266 79.9315 -1.16615 17.1099 -25.8374 42.0335 -21.6013 -100.071 -1.13773 -0.150563 -9.93759 6.30367 10.9509 -7.84147 -13.1826 11.2255 11.3352 
-264.404 95.4201 -258.36 -102.2 41.3363 -79.0408 -172.831 2.69263 91.8993 -53.6789 11.2734 0.48434 67.3507 3.97692 4.6321 24.1405 3.55108 -3.99333 -177.751 21.9011 87.1231 -35.4317 -32.7395 -10.742 65.4768 -3.33462 -1.3634 9.6893 1.21916 1.37783 -1.38906 7.55424 -90.6848 11.7528 -3.08417 -1.0395 0.0852079 -3.12694 -0.902639 -22.4696 -2.62914 -1.91881 -2.45692 -2.62913 -1.91882 94.6558 -22.33 -99.5572 46.0658 -4.59884 41.201 -33.1883 -7.15768 -79.1863 -21.9715 2.5039 -30.5788 -87.1376 -32.5259 79.4405 1.95033 22.974 -21.9336 42.5846 -23.358 -99.3201 0.116412 -0.198928 -9.52106 10.0504 10.4079 -10.8902 -14.6182 11.3124 12.597 
-258.863 93.8378 -253.625 -102.19 43.9945 -78.7513 -172.906 7.90135 90.7044 -55.4735 9.41263 -0.139484 70.694 5.23468 3.75837 35.9794 2.13334 -5.0488 -176.809 25.0373 86.4449 -47.9496 -19.091 -8.41077 70.7883 -5.86831 -2.14614 12.2098 0.0522805 2.86949 -1.08057 7.66906 -90.6919 11.524 -2.47332 -1.1254 -0.14501 -2.52046 -1.0154 -22.6899 -2.02078 -1.81685 -2.67728 -2.02077 -1.81684 93.2102 -26.3343 -101.462 38.8331 -5.47886 32.5561 -39.219 -5.7711 -85.8873 -23.9805 2.04141 -27.6309 -88.3879 -40.5287 79.1696 5.19095 27.5807 -12.7646 39.2905 -24.4355 -100.456 0.431576 -0.190651 -8.28968 15.0216 9.89223 -11.9898 -16.4221 11.4171 11.8623 
-253.387 91.9434 -248.845 -104.254 46.0826 -76.7335 -171.463 11.2233 91.7804 -57.3382 9.25147 -0.885213 72.5692 6.23425 5.29758 47.2875 1.5161 -7.62503 -176.384 25.7267 85.693 -64.4359 -10.711 -6.67791 75.2995 -7.92113 -2.03814 13.3311 -0.293789 3.29965 -0.663103 7.89047 -90.6334 11.0846 -1.61362 -1.10349 -0.58581 -1.66061 -1.0314 -23.1222 -1.20741 -1.53742 -3.10955 -1.20743 -1.53741 90.4031 -28.7484 -106.418 30.162 -2.69321 23.9013 -37.584 -3.73065 -92.4249 -25.1134 1.8429 -24.7054 -87.9517 -44.922 80.8294 1.54816 30.0307 -4.39091 41.6571 -23.2831 -97.4699 2.77449 -0.174117 -6.48592 16.3334 8.97218 -12.4593 -15.3361 11.0304 10.5 
-248.433 90.4927 -244.391 -105.763 47.5817 -74.675 -170.138 15.9424 93.0482 -60.6615 10.0039 -1.27204 78.3909 8.6634 3.87312 35.4623 1.89421 -4.47273 -177.402 22.5727 84.9226 -76.869 -6.09807 -4.93757 77.1251 -9.38382 -3.62392 13.4389 -1.42576 5.20076 -0.17342 7.84579 -90.58 11.178 -0.614674 -1.09437 -0.493192 -0.662251 -1.06626 -23.0249 -0.257404 -1.2285 -3.0123 -0.257397 -1.2285 92.4772 -30.7066 -101.6 23.1173 -6.10389 9.99488 -40.693 0.0482763 -96.0727 -24.92 1.14094 -21.5809 -86.3777 -46.0401 83.5284 -9.0323 34.0512 9.14581 44.2792 -23.4301 -94.9141 -0.107937 -0.128108 -6.2715 15.5516 7.33248 -12.6389 -13.8656 9.68379 9.07846 
-243.883 88.9977 -239.981 -103.671 47.9215 -77.5452 -170.026 22.8316 90.8204 -63.0654 6.12208 -2.08118 79.4604 8.85016 2.45336 29.4662 3.28512 -5.0112 -179.087 19.0909 81.2779 -85.7436 -4.00661 -4.18317 74.0082 -7.70937 -2.72299 14.1318 -0.887352 4.21398 0.218796 7.69615 -90.4459 11.4816 0.226946 -0.911362 -0.189594 0.186637 -0.920484 -22.723 0.490362 -0.801033 -2.71032 0.490376 -0.801031 94.0679 -28.9429 -98.9181 16.6271 -1.3747 -1.30098 -42.6858 3.43659 -101.002 -24.3257 0.549852 -19.4344 -84.7376 -45.4638 86.038 -21.7373 29.7691 25.8763 47.1727 -25.7895 -97.5741 -2.44452 -0.0901503 -10.6587 18.3078 5.07839 -10.7838 -14.6101 7.34637 7.44034 
-240.524 89.1438 -236.049 -105.577 47.2277 -76.6741 -170.671 24.6294 89.3945 -61.6276 6.91454 -2.00426 75.5696 7.50802 4.37403 27.3345 2.14419 -2.79307 177.601 8.14618 78.0123 -85.7407 -9.65589 -4.70336 70.2816 -6.04437 -3.32237 13.6885 -0.969089 4.39709 0.863051 7.69505 -90.4675 11.4901 1.49872 -1.08386 -0.180592 1.44959 -1.14879 -22.7207 1.75513 -0.583259 -2.70809 1.75515 -0.583256 94.3703 -22.4877 -100.159 15.2942 7.314 -3.26993 -38.1228 2.77439 -106.372 -22.3355 0.824614 -21.426 -83.1351 -43.4957 88.3731 -32.1267 28.9469 40.2665 41.7562 -28.9427 -102.242 -4.07535 0.00440015 -10.9051 16.8906 2.43267 -7.41408 -12.799 4.06228 4.60116 
-236.914 90.5431 -232.284 -109.223 46.5296 -73.5927 -171.56 23.0184 89.9836 -55.7502 9.20009 -2.03199 70.6407 5.65873 6.54361 24.1254 2.262 -2.26143 174.943 -4.38591 78.102 -78.1281 -18.4254 -6.57959 66.9507 -4.24646 -3.80642 14.0912 -1.58438 5.4149 1.79359 7.79106 -90.5404 11.3149 3.31753 -1.40675 -0.352689 3.25239 -1.55152 -22.9211 3.58678 -0.343506 -2.90847 3.58673 -0.343518 94.8609 -17.3903 -100.752 12.5341 10.1174 -2.37188 -36.8826 1.36923 -108.721 -22.3207 0.792715 -20.92 -82.0352 -38.5097 89.7014 -37.2149 30.7063 48.5309 37.027 -31.9471 -106.653 -3.52852 -0.0114209 -11.9429 12.9679 -1.43721 -6.79643 -10.2582 0.120349 2.60936 
